<svg version="1.1" id="Capa_1" xmlns="http://www.w3.org/2000/svg" xmlns:xlink="http://www.w3.org/1999/xlink" x="0px" y="0px"
  viewBox="0 0 487.222 487.222" style="enable-background:new 0 0 487.222 487.222;" xml:space="preserve">
  <g>
    <polygon fill="rgb(255,193,7)" fill-rule="nonzero" stroke-linejoin="round"
             points="486.554 186.811, 475.654 177.611, 323.654 156.011, 255.254 18.511, 243.154 11.011, 243.154 11.011, 231.054 18.611, 163.554 156.511, 11.554 179.111, 0.654 188.311, 4.154 202.111, 114.454 309.011, 88.954 460.411, 94.354 473.611, 102.254 476.211, 108.554 474.611, 244.254 402.711, 380.354 473.811, 386.554 475.311, 386.554 475.311, 400.054 461.811, 399.654 458.711, 373.354 308.211, 482.954 200.711, 486.554 186.811" />
    <path d="M486.554,186.811c-1.6-4.9-5.8-8.4-10.9-9.2l-152-21.6l-68.4-137.5c-2.3-4.6-7-7.5-12.1-7.5l0,0c-5.1,0-9.8,2.9-12.1,7.6
      l-67.5,137.9l-152,22.6c-5.1,0.8-9.3,4.3-10.9,9.2s-0.2,10.3,3.5,13.8l110.3,106.9l-25.5,151.4c-0.9,5.1,1.2,10.2,5.4,13.2
      c2.3,1.7,5.1,2.6,7.9,2.6c2.2,0,4.3-0.5,6.3-1.6l135.7-71.9l136.1,71.1c2,1,4.1,1.5,6.2,1.5l0,0c7.4,0,13.5-6.1,13.5-13.5
      c0-1.1-0.1-2.1-0.4-3.1l-26.3-150.5l109.6-107.5C486.854,197.111,488.154,191.711,486.554,186.811z M349.554,293.911
      c-3.2,3.1-4.6,7.6-3.8,12l22.9,131.3l-118.2-61.7c-3.9-2.1-8.6-2-12.6,0l-117.8,62.4l22.1-131.5c0.7-4.4-0.7-8.8-3.9-11.9
      l-95.6-92.8l131.9-19.6c4.4-0.7,8.2-3.4,10.1-7.4l58.6-119.7l59.4,119.4c2,4,5.8,6.7,10.2,7.4l132,18.8L349.554,293.911z"
          fill="rgb(255,193,7)"/>
  </g>
</svg>
